<mxfile host="app.diagrams.net" modified="2022-07-20T09:38:36.364Z" agent="5.0 (Windows NT 10.0; Win64; x64) AppleWebKit/537.36 (KHTML, like Gecko) Chrome/77.0.3865.90 Safari/537.36" etag="OqOvqpgScYdS8TcRMqZB" version="20.1.3" type="github">
  <diagram id="3_2vXmYikiGq84XksHhd" name="第 1 页">
    <mxGraphModel dx="2048" dy="758" grid="1" gridSize="10" guides="1" tooltips="1" connect="1" arrows="1" fold="1" page="1" pageScale="1" pageWidth="827" pageHeight="1169" math="0" shadow="0">
      <root>
        <mxCell id="0" />
        <mxCell id="1" parent="0" />
        <mxCell id="_3otI1U2jqaktOVGI7ai-1" value="ModelViewer" style="shape=umlLifeline;perimeter=lifelinePerimeter;whiteSpace=wrap;html=1;container=1;collapsible=0;recursiveResize=0;outlineConnect=0;" vertex="1" parent="1">
          <mxGeometry x="90" y="160" width="100" height="600" as="geometry" />
        </mxCell>
        <mxCell id="_3otI1U2jqaktOVGI7ai-5" value="" style="html=1;points=[];perimeter=orthogonalPerimeter;" vertex="1" parent="_3otI1U2jqaktOVGI7ai-1">
          <mxGeometry x="45" y="110" width="10" height="290" as="geometry" />
        </mxCell>
        <mxCell id="_3otI1U2jqaktOVGI7ai-10" value="record(shadowParameters)" style="html=1;verticalAlign=bottom;endArrow=block;rounded=0;" edge="1" parent="_3otI1U2jqaktOVGI7ai-1" target="_3otI1U2jqaktOVGI7ai-2">
          <mxGeometry width="80" relative="1" as="geometry">
            <mxPoint x="45" y="200" as="sourcePoint" />
            <mxPoint x="125" y="200" as="targetPoint" />
          </mxGeometry>
        </mxCell>
        <mxCell id="_3otI1U2jqaktOVGI7ai-11" value="record(recordParameters)" style="html=1;verticalAlign=bottom;endArrow=block;rounded=0;" edge="1" parent="_3otI1U2jqaktOVGI7ai-1" target="_3otI1U2jqaktOVGI7ai-3">
          <mxGeometry x="-0.464" y="-20" width="80" relative="1" as="geometry">
            <mxPoint x="55" y="269.5" as="sourcePoint" />
            <mxPoint x="135" y="269.5" as="targetPoint" />
            <mxPoint y="1" as="offset" />
          </mxGeometry>
        </mxCell>
        <mxCell id="_3otI1U2jqaktOVGI7ai-27" value="" style="html=1;points=[];perimeter=orthogonalPerimeter;" vertex="1" parent="_3otI1U2jqaktOVGI7ai-1">
          <mxGeometry x="45" y="425" width="10" height="80" as="geometry" />
        </mxCell>
        <mxCell id="_3otI1U2jqaktOVGI7ai-29" value="" style="html=1;points=[];perimeter=orthogonalPerimeter;" vertex="1" parent="_3otI1U2jqaktOVGI7ai-1">
          <mxGeometry x="45" y="520" width="10" height="70" as="geometry" />
        </mxCell>
        <mxCell id="_3otI1U2jqaktOVGI7ai-2" value="ShadowRenderPack" style="shape=umlLifeline;perimeter=lifelinePerimeter;whiteSpace=wrap;html=1;container=1;collapsible=0;recursiveResize=0;outlineConnect=0;" vertex="1" parent="1">
          <mxGeometry x="280" y="160" width="100" height="600" as="geometry" />
        </mxCell>
        <mxCell id="_3otI1U2jqaktOVGI7ai-26" value="" style="html=1;verticalAlign=bottom;endArrow=open;dashed=1;endSize=8;rounded=0;" edge="1" parent="_3otI1U2jqaktOVGI7ai-2" source="_3otI1U2jqaktOVGI7ai-3">
          <mxGeometry relative="1" as="geometry">
            <mxPoint x="50.5" y="380" as="sourcePoint" />
            <mxPoint x="-140" y="380" as="targetPoint" />
          </mxGeometry>
        </mxCell>
        <mxCell id="_3otI1U2jqaktOVGI7ai-3" value="NoiseFreeRenderPack" style="shape=umlLifeline;perimeter=lifelinePerimeter;whiteSpace=wrap;html=1;container=1;collapsible=0;recursiveResize=0;outlineConnect=0;" vertex="1" parent="1">
          <mxGeometry x="450" y="160" width="100" height="600" as="geometry" />
        </mxCell>
        <mxCell id="_3otI1U2jqaktOVGI7ai-4" value="SimpleScene::record()" style="html=1;verticalAlign=bottom;endArrow=block;rounded=0;" edge="1" parent="1" target="_3otI1U2jqaktOVGI7ai-1">
          <mxGeometry width="80" relative="1" as="geometry">
            <mxPoint y="250" as="sourcePoint" />
            <mxPoint x="80" y="250" as="targetPoint" />
          </mxGeometry>
        </mxCell>
        <mxCell id="_3otI1U2jqaktOVGI7ai-6" value="recordOffscreenPass()" style="text;html=1;align=center;verticalAlign=middle;resizable=0;points=[];autosize=1;strokeColor=none;fillColor=none;" vertex="1" parent="1">
          <mxGeometry y="325" width="140" height="30" as="geometry" />
        </mxCell>
        <mxCell id="_3otI1U2jqaktOVGI7ai-7" value="" style="html=1;points=[];perimeter=orthogonalPerimeter;" vertex="1" parent="1">
          <mxGeometry x="220" y="275" width="10" height="45" as="geometry" />
        </mxCell>
        <mxCell id="_3otI1U2jqaktOVGI7ai-8" value="refreshGpuData()" style="html=1;verticalAlign=bottom;endArrow=block;entryX=0;entryY=0;rounded=0;" edge="1" target="_3otI1U2jqaktOVGI7ai-7" parent="1">
          <mxGeometry relative="1" as="geometry">
            <mxPoint x="150" y="275" as="sourcePoint" />
          </mxGeometry>
        </mxCell>
        <mxCell id="_3otI1U2jqaktOVGI7ai-9" value="return" style="html=1;verticalAlign=bottom;endArrow=open;dashed=1;endSize=8;exitX=0;exitY=0.95;rounded=0;" edge="1" source="_3otI1U2jqaktOVGI7ai-7" parent="1" target="_3otI1U2jqaktOVGI7ai-1">
          <mxGeometry relative="1" as="geometry">
            <mxPoint x="150" y="351" as="targetPoint" />
          </mxGeometry>
        </mxCell>
        <mxCell id="_3otI1U2jqaktOVGI7ai-12" value="" style="html=1;points=[];perimeter=orthogonalPerimeter;" vertex="1" parent="1">
          <mxGeometry x="570" y="430" width="10" height="40" as="geometry" />
        </mxCell>
        <mxCell id="_3otI1U2jqaktOVGI7ai-13" value="prez subpass" style="html=1;verticalAlign=bottom;endArrow=block;entryX=0;entryY=0;rounded=0;" edge="1" target="_3otI1U2jqaktOVGI7ai-12" parent="1">
          <mxGeometry relative="1" as="geometry">
            <mxPoint x="500" y="430" as="sourcePoint" />
          </mxGeometry>
        </mxCell>
        <mxCell id="_3otI1U2jqaktOVGI7ai-14" value="" style="html=1;verticalAlign=bottom;endArrow=open;dashed=1;endSize=8;exitX=0;exitY=0.95;rounded=0;" edge="1" source="_3otI1U2jqaktOVGI7ai-12" parent="1" target="_3otI1U2jqaktOVGI7ai-3">
          <mxGeometry relative="1" as="geometry">
            <mxPoint x="500" y="506" as="targetPoint" />
          </mxGeometry>
        </mxCell>
        <mxCell id="_3otI1U2jqaktOVGI7ai-19" value="" style="html=1;points=[];perimeter=orthogonalPerimeter;" vertex="1" parent="1">
          <mxGeometry x="570" y="490" width="10" height="40" as="geometry" />
        </mxCell>
        <mxCell id="_3otI1U2jqaktOVGI7ai-20" value="main subpass" style="html=1;verticalAlign=bottom;endArrow=block;entryX=0;entryY=0;rounded=0;" edge="1" parent="1" target="_3otI1U2jqaktOVGI7ai-19">
          <mxGeometry relative="1" as="geometry">
            <mxPoint x="500" y="490" as="sourcePoint" />
          </mxGeometry>
        </mxCell>
        <mxCell id="_3otI1U2jqaktOVGI7ai-21" value="" style="html=1;verticalAlign=bottom;endArrow=open;dashed=1;endSize=8;exitX=0;exitY=0.95;rounded=0;" edge="1" parent="1" source="_3otI1U2jqaktOVGI7ai-19">
          <mxGeometry relative="1" as="geometry">
            <mxPoint x="499.5" y="528" as="targetPoint" />
          </mxGeometry>
        </mxCell>
        <mxCell id="_3otI1U2jqaktOVGI7ai-22" value="" style="html=1;verticalAlign=bottom;endArrow=open;dashed=1;endSize=8;rounded=0;" edge="1" parent="1" target="_3otI1U2jqaktOVGI7ai-1">
          <mxGeometry relative="1" as="geometry">
            <mxPoint x="330" y="410" as="sourcePoint" />
            <mxPoint x="250" y="410" as="targetPoint" />
          </mxGeometry>
        </mxCell>
        <mxCell id="_3otI1U2jqaktOVGI7ai-28" value="recordMainColorPass()" style="text;html=1;align=center;verticalAlign=middle;resizable=0;points=[];autosize=1;strokeColor=none;fillColor=none;" vertex="1" parent="1">
          <mxGeometry x="-5" y="615" width="150" height="30" as="geometry" />
        </mxCell>
        <mxCell id="_3otI1U2jqaktOVGI7ai-30" value="draw UI" style="text;html=1;align=center;verticalAlign=middle;resizable=0;points=[];autosize=1;strokeColor=none;fillColor=none;" vertex="1" parent="1">
          <mxGeometry x="55" y="695" width="70" height="30" as="geometry" />
        </mxCell>
        <mxCell id="_3otI1U2jqaktOVGI7ai-31" value="&lt;font style=&quot;font-size: 23px;&quot;&gt;&lt;b&gt;NoiseFree renderpass in cpu&lt;/b&gt;&lt;/font&gt;" style="text;html=1;align=center;verticalAlign=middle;resizable=0;points=[];autosize=1;strokeColor=none;fillColor=none;" vertex="1" parent="1">
          <mxGeometry x="145" y="80" width="340" height="40" as="geometry" />
        </mxCell>
      </root>
    </mxGraphModel>
  </diagram>
</mxfile>
